<mxfile host="app.diagrams.net" agent="Mozilla/5.0 (Windows NT 10.0; Win64; x64) AppleWebKit/537.36 (KHTML, like Gecko) Chrome/128.0.0.0 Safari/537.36" version="24.7.12">
  <diagram name="Top Level" id="NxIA4-TYQyyvKBs2GOv9">
    <mxGraphModel dx="2033" dy="1104" grid="1" gridSize="10" guides="1" tooltips="1" connect="1" arrows="1" fold="1" page="1" pageScale="1" pageWidth="850" pageHeight="1100" math="0" shadow="0">
      <root>
        <mxCell id="0" />
        <mxCell id="1" parent="0" />
        <mxCell id="9K9XeEiKKCQJL-Pltf8P-20" value="" style="whiteSpace=wrap;html=1;" parent="1" vertex="1">
          <mxGeometry x="615" y="10" width="225" height="290" as="geometry" />
        </mxCell>
        <mxCell id="9K9XeEiKKCQJL-Pltf8P-24" value="" style="edgeStyle=orthogonalEdgeStyle;rounded=0;orthogonalLoop=1;jettySize=auto;html=1;" parent="1" source="9K9XeEiKKCQJL-Pltf8P-1" target="9K9XeEiKKCQJL-Pltf8P-18" edge="1">
          <mxGeometry relative="1" as="geometry" />
        </mxCell>
        <mxCell id="9K9XeEiKKCQJL-Pltf8P-31" style="edgeStyle=orthogonalEdgeStyle;rounded=0;orthogonalLoop=1;jettySize=auto;html=1;" parent="1" source="9K9XeEiKKCQJL-Pltf8P-1" target="9K9XeEiKKCQJL-Pltf8P-11" edge="1">
          <mxGeometry relative="1" as="geometry">
            <Array as="points">
              <mxPoint x="180" y="565" />
            </Array>
          </mxGeometry>
        </mxCell>
        <mxCell id="9K9XeEiKKCQJL-Pltf8P-32" style="edgeStyle=orthogonalEdgeStyle;rounded=0;orthogonalLoop=1;jettySize=auto;html=1;" parent="1" source="9K9XeEiKKCQJL-Pltf8P-1" target="9K9XeEiKKCQJL-Pltf8P-7" edge="1">
          <mxGeometry relative="1" as="geometry">
            <Array as="points">
              <mxPoint x="700" y="565" />
            </Array>
          </mxGeometry>
        </mxCell>
        <mxCell id="9K9XeEiKKCQJL-Pltf8P-44" style="edgeStyle=orthogonalEdgeStyle;rounded=0;orthogonalLoop=1;jettySize=auto;html=1;" parent="1" source="9K9XeEiKKCQJL-Pltf8P-1" target="9K9XeEiKKCQJL-Pltf8P-25" edge="1">
          <mxGeometry relative="1" as="geometry">
            <Array as="points">
              <mxPoint x="450" y="380" />
            </Array>
          </mxGeometry>
        </mxCell>
        <mxCell id="9K9XeEiKKCQJL-Pltf8P-1" value="&lt;b&gt;MAIN EXECUTOR&lt;/b&gt;" style="whiteSpace=wrap;html=1;" parent="1" vertex="1">
          <mxGeometry x="340" y="535" width="170" height="60" as="geometry" />
        </mxCell>
        <mxCell id="9K9XeEiKKCQJL-Pltf8P-5" value="" style="edgeStyle=orthogonalEdgeStyle;rounded=0;orthogonalLoop=1;jettySize=auto;html=1;" parent="1" source="9K9XeEiKKCQJL-Pltf8P-2" target="9K9XeEiKKCQJL-Pltf8P-4" edge="1">
          <mxGeometry relative="1" as="geometry" />
        </mxCell>
        <mxCell id="9K9XeEiKKCQJL-Pltf8P-2" value="Power ON/Reset" style="whiteSpace=wrap;html=1;fillColor=#fff2cc;strokeColor=#d6b656;" parent="1" vertex="1">
          <mxGeometry x="80" y="100" width="120" height="60" as="geometry" />
        </mxCell>
        <mxCell id="9K9XeEiKKCQJL-Pltf8P-3" value="&lt;font style=&quot;font-size: 18px;&quot;&gt;&lt;b&gt;TOP LEVEL OVERVIEW&lt;/b&gt;&lt;/font&gt;" style="text;html=1;align=center;verticalAlign=middle;resizable=0;points=[];autosize=1;strokeColor=none;fillColor=none;" parent="1" vertex="1">
          <mxGeometry x="55" y="3" width="220" height="40" as="geometry" />
        </mxCell>
        <mxCell id="9K9XeEiKKCQJL-Pltf8P-21" value="" style="edgeStyle=orthogonalEdgeStyle;rounded=0;orthogonalLoop=1;jettySize=auto;html=1;" parent="1" source="9K9XeEiKKCQJL-Pltf8P-4" target="9K9XeEiKKCQJL-Pltf8P-14" edge="1">
          <mxGeometry relative="1" as="geometry" />
        </mxCell>
        <mxCell id="9K9XeEiKKCQJL-Pltf8P-4" value="Bootloader" style="whiteSpace=wrap;html=1;" parent="1" vertex="1">
          <mxGeometry x="365" y="100" width="120" height="60" as="geometry" />
        </mxCell>
        <mxCell id="9K9XeEiKKCQJL-Pltf8P-37" style="edgeStyle=orthogonalEdgeStyle;rounded=0;orthogonalLoop=1;jettySize=auto;html=1;" parent="1" source="9K9XeEiKKCQJL-Pltf8P-7" target="9K9XeEiKKCQJL-Pltf8P-1" edge="1">
          <mxGeometry relative="1" as="geometry">
            <Array as="points">
              <mxPoint x="680" y="580" />
            </Array>
          </mxGeometry>
        </mxCell>
        <mxCell id="9K9XeEiKKCQJL-Pltf8P-39" style="edgeStyle=orthogonalEdgeStyle;rounded=0;orthogonalLoop=1;jettySize=auto;html=1;" parent="1" source="9K9XeEiKKCQJL-Pltf8P-7" target="9K9XeEiKKCQJL-Pltf8P-18" edge="1">
          <mxGeometry relative="1" as="geometry">
            <Array as="points">
              <mxPoint x="693" y="790" />
              <mxPoint x="425" y="790" />
            </Array>
          </mxGeometry>
        </mxCell>
        <mxCell id="9K9XeEiKKCQJL-Pltf8P-7" value="Web App" style="ellipse;whiteSpace=wrap;html=1;" parent="1" vertex="1">
          <mxGeometry x="605" y="645" width="175" height="80" as="geometry" />
        </mxCell>
        <mxCell id="9K9XeEiKKCQJL-Pltf8P-41" style="edgeStyle=orthogonalEdgeStyle;rounded=0;orthogonalLoop=1;jettySize=auto;html=1;" parent="1" source="9K9XeEiKKCQJL-Pltf8P-11" target="9K9XeEiKKCQJL-Pltf8P-18" edge="1">
          <mxGeometry relative="1" as="geometry">
            <Array as="points">
              <mxPoint x="193" y="790" />
              <mxPoint x="425" y="790" />
            </Array>
          </mxGeometry>
        </mxCell>
        <mxCell id="9K9XeEiKKCQJL-Pltf8P-43" style="edgeStyle=orthogonalEdgeStyle;rounded=0;orthogonalLoop=1;jettySize=auto;html=1;" parent="1" source="9K9XeEiKKCQJL-Pltf8P-11" target="9K9XeEiKKCQJL-Pltf8P-1" edge="1">
          <mxGeometry relative="1" as="geometry">
            <Array as="points">
              <mxPoint x="193" y="580" />
            </Array>
          </mxGeometry>
        </mxCell>
        <mxCell id="9K9XeEiKKCQJL-Pltf8P-11" value="LoRa" style="ellipse;whiteSpace=wrap;html=1;" parent="1" vertex="1">
          <mxGeometry x="100" y="645" width="185" height="80" as="geometry" />
        </mxCell>
        <mxCell id="9K9XeEiKKCQJL-Pltf8P-22" value="" style="edgeStyle=orthogonalEdgeStyle;rounded=0;orthogonalLoop=1;jettySize=auto;html=1;" parent="1" source="9K9XeEiKKCQJL-Pltf8P-14" target="9K9XeEiKKCQJL-Pltf8P-1" edge="1">
          <mxGeometry relative="1" as="geometry" />
        </mxCell>
        <mxCell id="9K9XeEiKKCQJL-Pltf8P-14" value="Init modules" style="whiteSpace=wrap;html=1;" parent="1" vertex="1">
          <mxGeometry x="365.5" y="220" width="120" height="60" as="geometry" />
        </mxCell>
        <mxCell id="9K9XeEiKKCQJL-Pltf8P-15" value="LEGEND" style="text;html=1;align=center;verticalAlign=middle;resizable=0;points=[];autosize=1;strokeColor=none;fillColor=none;" parent="1" vertex="1">
          <mxGeometry x="665" y="18" width="70" height="30" as="geometry" />
        </mxCell>
        <mxCell id="9K9XeEiKKCQJL-Pltf8P-16" value="Async Task" style="ellipse;whiteSpace=wrap;html=1;" parent="1" vertex="1">
          <mxGeometry x="670" y="130" width="110" height="50" as="geometry" />
        </mxCell>
        <mxCell id="9K9XeEiKKCQJL-Pltf8P-17" value="Firmware/Blocking Task" style="whiteSpace=wrap;html=1;" parent="1" vertex="1">
          <mxGeometry x="670" y="48" width="120" height="60" as="geometry" />
        </mxCell>
        <mxCell id="9K9XeEiKKCQJL-Pltf8P-28" style="edgeStyle=orthogonalEdgeStyle;rounded=0;orthogonalLoop=1;jettySize=auto;html=1;" parent="1" source="9K9XeEiKKCQJL-Pltf8P-18" target="9K9XeEiKKCQJL-Pltf8P-1" edge="1">
          <mxGeometry relative="1" as="geometry">
            <Array as="points">
              <mxPoint x="490" y="685" />
            </Array>
          </mxGeometry>
        </mxCell>
        <mxCell id="9K9XeEiKKCQJL-Pltf8P-29" style="edgeStyle=orthogonalEdgeStyle;rounded=0;orthogonalLoop=1;jettySize=auto;html=1;" parent="1" source="9K9XeEiKKCQJL-Pltf8P-18" target="9K9XeEiKKCQJL-Pltf8P-1" edge="1">
          <mxGeometry relative="1" as="geometry">
            <Array as="points">
              <mxPoint x="360" y="685" />
            </Array>
          </mxGeometry>
        </mxCell>
        <mxCell id="9K9XeEiKKCQJL-Pltf8P-18" value="SLEEP" style="rhombus;whiteSpace=wrap;html=1;" parent="1" vertex="1">
          <mxGeometry x="385" y="645" width="80" height="80" as="geometry" />
        </mxCell>
        <mxCell id="9K9XeEiKKCQJL-Pltf8P-19" value="Blocks Until Waker" style="rhombus;whiteSpace=wrap;html=1;" parent="1" vertex="1">
          <mxGeometry x="655" y="200" width="140" height="80" as="geometry" />
        </mxCell>
        <mxCell id="9K9XeEiKKCQJL-Pltf8P-45" style="edgeStyle=orthogonalEdgeStyle;rounded=0;orthogonalLoop=1;jettySize=auto;html=1;" parent="1" source="9K9XeEiKKCQJL-Pltf8P-25" target="9K9XeEiKKCQJL-Pltf8P-1" edge="1">
          <mxGeometry relative="1" as="geometry">
            <Array as="points">
              <mxPoint x="460" y="390" />
            </Array>
          </mxGeometry>
        </mxCell>
        <mxCell id="9K9XeEiKKCQJL-Pltf8P-25" value="SD Card interface" style="ellipse;whiteSpace=wrap;html=1;" parent="1" vertex="1">
          <mxGeometry x="600" y="350" width="170" height="80" as="geometry" />
        </mxCell>
        <mxCell id="9K9XeEiKKCQJL-Pltf8P-27" value="User Button Press" style="text;html=1;align=center;verticalAlign=middle;resizable=0;points=[];autosize=1;strokeColor=none;fillColor=none;" parent="1" vertex="1">
          <mxGeometry x="450" y="685" width="120" height="30" as="geometry" />
        </mxCell>
        <mxCell id="9K9XeEiKKCQJL-Pltf8P-30" value="LoRa RX" style="text;html=1;align=center;verticalAlign=middle;resizable=0;points=[];autosize=1;strokeColor=none;fillColor=none;" parent="1" vertex="1">
          <mxGeometry x="315" y="685" width="70" height="30" as="geometry" />
        </mxCell>
        <mxCell id="9K9XeEiKKCQJL-Pltf8P-33" value="A user has requested to access the web server" style="text;html=1;align=center;verticalAlign=middle;resizable=0;points=[];autosize=1;strokeColor=none;fillColor=none;" parent="1" vertex="1">
          <mxGeometry x="525" y="535" width="270" height="30" as="geometry" />
        </mxCell>
        <mxCell id="9K9XeEiKKCQJL-Pltf8P-34" value="A User wants to send a message, message needs repeating,&lt;div&gt;&amp;nbsp;or a&amp;nbsp;&lt;span style=&quot;background-color: initial;&quot;&gt;message has been received&lt;/span&gt;&lt;/div&gt;" style="text;html=1;align=center;verticalAlign=middle;resizable=0;points=[];autosize=1;strokeColor=none;fillColor=none;" parent="1" vertex="1">
          <mxGeometry y="510" width="350" height="40" as="geometry" />
        </mxCell>
        <mxCell id="9K9XeEiKKCQJL-Pltf8P-38" value="Request for chat logs" style="text;html=1;align=center;verticalAlign=middle;resizable=0;points=[];autosize=1;strokeColor=none;fillColor=none;" parent="1" vertex="1">
          <mxGeometry x="530" y="580" width="140" height="30" as="geometry" />
        </mxCell>
        <mxCell id="9K9XeEiKKCQJL-Pltf8P-40" value="Server Timeout" style="text;html=1;align=center;verticalAlign=middle;resizable=0;points=[];autosize=1;strokeColor=none;fillColor=none;" parent="1" vertex="1">
          <mxGeometry x="510" y="740" width="100" height="30" as="geometry" />
        </mxCell>
        <mxCell id="9K9XeEiKKCQJL-Pltf8P-42" value="No Rx/Tx req" style="text;html=1;align=center;verticalAlign=middle;resizable=0;points=[];autosize=1;strokeColor=none;fillColor=none;" parent="1" vertex="1">
          <mxGeometry x="425" y="740" width="90" height="30" as="geometry" />
        </mxCell>
        <mxCell id="9K9XeEiKKCQJL-Pltf8P-46" value="Logs, chats" style="text;html=1;align=center;verticalAlign=middle;resizable=0;points=[];autosize=1;strokeColor=none;fillColor=none;" parent="1" vertex="1">
          <mxGeometry x="460" y="350" width="80" height="30" as="geometry" />
        </mxCell>
        <mxCell id="9K9XeEiKKCQJL-Pltf8P-47" value="Chat history" style="text;html=1;align=center;verticalAlign=middle;resizable=0;points=[];autosize=1;strokeColor=none;fillColor=none;" parent="1" vertex="1">
          <mxGeometry x="465" y="388" width="90" height="30" as="geometry" />
        </mxCell>
        <mxCell id="oY74KYp94tVQAtgfcAwB-1" value="v1.0" style="text;html=1;align=center;verticalAlign=middle;resizable=0;points=[];autosize=1;strokeColor=none;fillColor=none;" vertex="1" parent="1">
          <mxGeometry x="365" y="8" width="50" height="30" as="geometry" />
        </mxCell>
      </root>
    </mxGraphModel>
  </diagram>
</mxfile>
